<?xml version="1.0" standalone="no"?>
<!DOCTYPE svg PUBLIC "-//W3C//DTD SVG 20010904//EN"
 "http://www.w3.org/TR/2001/REC-SVG-20010904/DTD/svg10.dtd">
<svg version="1.0" xmlns="http://www.w3.org/2000/svg"
 width="260.000000pt" height="260.000000pt" viewBox="0 0 260.000000 260.000000"
 preserveAspectRatio="xMidYMid meet">
<metadata>
Created by potrace 1.11, written by Peter Selinger 2001-2013
</metadata>
<g transform="translate(0.000000,260.000000) scale(0.100000,-0.100000)"
fill="#000000" stroke="none">
<path d="M0 1300 l0 -1300 1300 0 1300 0 0 1300 0 1300 -1300 0 -1300 0 0
-1300z m1530 841 c367 -90 607 -273 759 -577 120 -239 143 -516 65 -766 -15
-49 -31 -88 -35 -88 -4 0 -10 17 -14 37 l-7 38 -26 -54 c-23 -46 -24 -55 -12
-65 18 -13 24 -36 10 -36 -5 0 -10 6 -10 14 0 8 -6 16 -13 19 -10 4 -13 -2 -9
-21 4 -20 2 -24 -10 -19 -9 3 -25 -1 -37 -9 -18 -13 -20 -13 -15 1 3 8 1 15
-5 15 -6 0 -11 -7 -11 -15 0 -8 -5 -15 -10 -15 -6 0 -10 -6 -9 -12 3 -26 -1
-38 -15 -38 -8 0 -17 6 -19 13 -3 7 -6 5 -6 -5 -1 -20 -21 -25 -22 -5 0 6 -4
3 -9 -8 -8 -18 -9 -18 -9 -2 -1 10 -5 16 -10 13 -5 -3 -11 1 -15 9 -8 21 -33
19 -45 -3 -7 -13 -6 -23 1 -30 9 -9 8 -12 -3 -12 -9 0 -21 11 -27 25 -10 21
-9 27 3 31 18 7 20 25 3 21 -7 -1 -15 13 -19 33 -5 28 -7 23 -8 -27 0 -35 -5
-63 -11 -63 -5 0 -9 3 -8 8 1 4 -2 22 -6 41 -6 23 -11 30 -16 20 -5 -7 -6 -17
-4 -21 3 -4 0 -8 -6 -8 -6 0 -8 -4 -5 -10 3 -5 2 -10 -3 -10 -6 0 -12 7 -16
15 -3 8 -11 15 -17 15 -8 0 -7 -5 2 -17 12 -14 12 -16 -1 -11 -17 6 -43 -16
-32 -28 4 -4 -1 -4 -12 0 -14 5 -17 2 -12 -9 3 -8 -3 -29 -12 -45 -17 -27 -19
-28 -33 -12 -9 10 -14 23 -11 30 2 7 -1 12 -7 12 -6 0 -11 12 -11 28 -1 23 -5
19 -27 -28 -15 -30 -27 -58 -27 -62 -1 -3 -4 -9 -8 -13 -4 -4 -4 -13 -2 -19 3
-7 -2 -13 -10 -13 -17 0 -29 24 -20 38 3 5 0 9 -6 9 -6 0 -13 -13 -16 -30 -4
-16 -11 -30 -16 -30 -5 0 -6 5 -3 10 3 6 4 10 0 10 -3 0 -11 -12 -17 -27 -10
-25 -12 -26 -16 -8 -2 11 -9 25 -14 30 -7 7 -9 7 -6 0 3 -5 -3 -19 -13 -29
-19 -19 -19 -19 -20 5 -1 13 -1 27 0 32 0 4 -3 7 -8 7 -5 0 -12 -13 -16 -30
-8 -35 -25 -40 -25 -7 0 16 -3 18 -9 9 -6 -10 -10 -7 -15 12 -4 17 -11 23 -21
20 -11 -5 -15 1 -15 20 0 18 -4 24 -15 20 -8 -4 -23 0 -32 7 -12 10 -15 10 -9
2 4 -7 2 -13 -3 -13 -6 0 -11 -12 -11 -27 0 -14 -3 -23 -7 -19 -4 3 -13 -4
-20 -16 -12 -23 -12 -23 -13 -2 0 12 -7 24 -15 28 -9 3 -15 19 -16 38 0 18 -4
42 -9 53 -8 18 -9 18 -10 -5 -1 -14 -1 -40 0 -58 1 -17 -3 -32 -9 -32 -6 0
-12 8 -12 18 -1 16 -2 16 -6 -1 -2 -9 -9 -17 -14 -17 -5 0 -9 -7 -9 -15 0 -24
-19 -17 -26 10 -3 14 -11 25 -16 25 -6 0 -8 -9 -5 -20 7 -27 -10 -26 -19 2 -6
20 -7 21 -19 4 -10 -13 -14 -14 -18 -4 -3 7 -6 3 -6 -9 -1 -12 -5 -24 -9 -27
-12 -7 -54 23 -47 34 3 4 -2 20 -10 36 -7 15 -12 31 -9 35 2 4 -7 6 -22 3 -16
-3 -23 -1 -19 6 3 5 4 10 1 10 -2 0 -11 3 -20 6 -12 5 -16 0 -16 -21 0 -17 4
-24 12 -19 7 5 8 3 4 -5 -5 -7 -15 -10 -25 -6 -13 5 -14 4 -3 -6 16 -18 15
-32 -2 -26 -10 4 -13 1 -9 -9 3 -8 11 -13 18 -12 8 2 14 -1 14 -7 0 -5 -13 -9
-29 -9 -23 1 -30 -3 -30 -17 0 -11 -5 -19 -10 -19 -6 0 -8 -11 -4 -25 3 -14 3
-25 -2 -25 -15 0 -42 32 -38 45 3 7 -4 18 -15 25 -20 10 -26 5 -22 -22 0 -4
-12 -6 -28 -6 -15 1 -34 -3 -42 -7 -8 -5 -11 -5 -7 0 4 4 1 20 -8 36 -16 31
-27 39 -17 12 4 -10 2 -14 -4 -10 -6 4 -14 -4 -17 -18 -6 -22 -9 -23 -31 -13
-14 6 -25 15 -25 20 0 4 -6 8 -13 8 -8 0 -13 10 -13 22 1 15 -4 22 -13 20 -10
-2 -12 4 -7 23 4 17 3 24 -4 20 -5 -3 -10 -17 -10 -31 0 -14 -4 -23 -9 -20 -5
4 -12 -7 -16 -24 -7 -34 -19 -38 -34 -12 -6 9 -11 13 -11 8 0 -17 -71 58 -108
114 -75 117 -132 248 -159 370 -21 93 -23 307 -5 405 86 448 420 783 867 869
44 8 89 17 100 20 49 12 283 -2 365 -23z m760 -1431 c0 -5 -2 -10 -4 -10 -3 0
-8 5 -11 10 -3 6 -1 10 4 10 6 0 11 -4 11 -10z m-116 -129 c9 -14 -4 -41 -20
-41 -8 0 -13 -5 -11 -11 3 -18 -20 -21 -27 -4 -3 9 -2 13 3 10 12 -7 42 35 35
47 -3 4 -1 8 5 8 5 0 12 -4 15 -9z m-454 -95 c0 -2 -7 -6 -15 -10 -8 -3 -15
-1 -15 4 0 6 7 10 15 10 8 0 15 -2 15 -4z m403 -13 c-7 -2 -19 -2 -25 0 -7 3
-2 5 12 5 14 0 19 -2 13 -5z m-1138 -13 c3 -5 1 -10 -4 -10 -6 0 -11 5 -11 10
0 6 2 10 4 10 3 0 8 -4 11 -10z m785 -29 c0 -6 -4 -13 -10 -16 -5 -3 -10 1
-10 9 0 9 5 16 10 16 6 0 10 -4 10 -9z m-635 -61 c3 -5 1 -10 -4 -10 -6 0 -11
5 -11 10 0 6 2 10 4 10 3 0 8 -4 11 -10z"/>
<path d="M2066 584 c-5 -14 -4 -15 9 -4 17 14 19 20 6 20 -5 0 -12 -7 -15 -16z"/>
<path d="M941 544 c0 -11 3 -14 6 -6 3 7 2 16 -1 19 -3 4 -6 -2 -5 -13z"/>
</g>
</svg>
